<svg width="34" height="25" viewBox="0 0 34 25" fill="none" xmlns="http://www.w3.org/2000/svg">
<path fill-rule="evenodd" clip-rule="evenodd" d="M17.2 24.5121C14.5369 24.5304 11.9111 23.8861 9.55902 22.6371C7.62 21.5832 5.88885 20.1855 4.45001 18.5121C2.88513 16.727 1.61884 14.7009 0.700012 12.5121C1.62097 10.3244 2.88708 8.2986 4.45001 6.5121C5.88885 4.8387 7.62 3.44099 9.55902 2.3871C11.9111 1.13814 14.5369 0.493788 17.2 0.512098C19.8631 0.493788 22.4889 1.13814 24.841 2.3871C26.78 3.44099 28.5112 4.8387 29.95 6.5121C31.5149 8.29719 32.7812 10.3233 33.7 12.5121C32.7791 14.6998 31.5129 16.7256 29.95 18.5121C28.5112 20.1855 26.78 21.5832 24.841 22.6371C22.4889 23.8861 19.8631 24.5304 17.2 24.5121V24.5121ZM17.2 3.5121C9.37299 3.5121 5.35303 9.81209 3.987 12.5171C5.33801 15.2211 9.33099 21.5121 17.2 21.5121C25.026 21.5121 29.048 15.2121 30.414 12.5061C29.064 9.80311 25.073 3.5121 17.2 3.5121V3.5121ZM17.2 18.5121C13.8863 18.5121 11.2 15.8258 11.2 12.5121C11.2 9.19838 13.8863 6.5121 17.2 6.5121C20.5137 6.5121 23.2 9.19838 23.2 12.5121C23.1968 15.8243 20.5125 18.5087 17.2001 18.5121H17.2ZM17.2 9.5121C15.5432 9.5121 14.2 10.8552 14.2 12.5121C14.2 14.169 15.5432 15.5121 17.2 15.5121C18.8569 15.5121 20.2 14.169 20.2 12.5121C20.2 10.8552 18.8569 9.5121 17.2 9.5121V9.5121Z" fill="#D9D9D9" fill-opacity="0.5"/>
<line x1="2.82204" y1="2.74531" x2="31.822" y2="21.7453" stroke="#D9D9D9" stroke-opacity="0.5" stroke-width="3"/>
</svg>
